<svg  version="1.1" id="Layer_1" xmlns="http://www.w3.org/2000/svg" xmlns:xlink="http://www.w3.org/1999/xlink" x="0px" y="0px" width="65px" height="177px" viewBox="0 0 65 177 " xml:space="preserve">

<g id="current" transform="translate(-866 -480)">

<text x="885.855" y="595.628" fill="white" font-weight="normal" font-size="22.5" font-family="Calibri">RH%</text>
<path id="_229914968" fill="#9999FF" fill-rule="nonzero" d="M897.339 643.76c0.0211654,-0.119811 0.0185197,-0.247181 -0.015874,-0.371906l-0.0154961 -0.0612283c-0.822425,-8.47446 -7.33531,-27.5233 -9.83357,-36.8984 -0.107717,-0.408567 -0.493984,-0.685228 -0.922205,-0.704882l-0.0366614 -0.00226772 -0.0132283 0 -0.0366614 0 -0.0132283 0 -0.0366614 0.00226772c-0.42822,0.0173858 -0.811843,0.301228 -0.922205,0.704882 -2.47748,9.3018 -9.04025,28.5218 -9.83357,36.8984l-0.015874 0.0612283c-0.0340157,0.124724 -0.0366614,0.252094 -0.0154961,0.371906l-0.0105827 0.476976c0,5.21272 5.08082,11.6413 10.8658,11.6413 5.99282,0 10.8661,-6.05934 10.8661,-11.6413l-0.0105827 -0.476976z"/>
<path id="_229914128" fill="#9999FF" fill-opacity="0.8" fill-rule="nonzero" d="M912.166 625.508c0.0102047,-0.0600945 0.00907087,-0.123591 -0.00793701,-0.185953l-0.00793701 -0.0306142c-0.411213,-4.23723 -3.66765,-13.7616 -4.91679,-18.4494 -0.0536693,-0.204094 -0.246803,-0.342425 -0.461102,-0.352252l-0.0181417 -0.00113386 -0.00680315 0 -0.0181417 0 -0.00680315 0 -0.0185197 0.00113386c-0.213921,0.00869291 -0.405543,0.150425 -0.460724,0.352252 -1.23893,4.65109 -4.52031,14.2609 -4.91679,18.4494l-0.00793701 0.0306142c-0.0170079,0.0623622 -0.0185197,0.125858 -0.00793701,0.185953l-0.00529134 0.238488c0,2.60636 2.5406,5.82047 5.43307,5.82047 2.99641,0 5.43307,-3.02929 5.43307,-5.82047l-0.00529134 -0.238488z"/>
   <path id="_229914320" fill="#9999FF" fill-opacity="0.501961" fill-rule="nonzero" d="M879.278 606.499c0.0105827,-0.0805039 0.00907087,-0.165921 -0.00793701,-0.249449l-0.00793701 -0.0411969c-0.411213,-5.68441 -3.66765,-18.4619 -4.91679,-24.7502 -0.0536693,-0.274016 -0.246803,-0.459591 -0.461102,-0.472819l-0.0181417 -0.00151181 -0.00680315 0 -0.0181417 0 -0.00680315 0 -0.0181417 0.00151181c-0.214299,0.0117165 -0.405921,0.201827 -0.461102,0.472819 -1.23893,6.23924 -4.52031,19.1316 -4.91679,24.7502l-0.00793701 0.0411969c-0.0170079,0.0835276 -0.0185197,0.168945 -0.00793701,0.249449l-0.00529134 0.320126c0,3.49644 2.5406,7.8085 5.43307,7.8085 2.99641,0 5.43307,-4.0645 5.43307,-7.8085l-0.00529134 -0.320126z"/>
   <path id="_229913792" fill="white" fill-rule="nonzero" d="M887.558 541.739c1.24876,1.03861 2.27717,2.33159 3.00472,3.79691 0.775937,1.56397 1.21209,3.32334 1.21209,5.18098 0,3.22469 -1.30734,6.14476 -3.42085,8.25827 -2.11351,2.11351 -5.03357,3.42123 -8.25827,3.42123 -3.22469,0 -6.14513,-1.30772 -8.25865,-3.42123 -2.11351,-2.11351 -3.42123,-5.03357 -3.42123,-8.25827 0,-1.85802 0.436535,-3.61739 1.21285,-5.18135 0.727181,-1.46532 1.75559,-2.7583 3.00472,-3.79691l0 -49.443c0,-2.05266 0.839433,-3.91899 2.19137,-5.27093 1.35156,-1.35156 3.21751,-2.19099 5.27055,-2.19099l0.000377953 0c2.05039,0 3.91483,0.839433 5.26715,2.19099l0.00377953 0c1.35194,1.35194 2.19137,3.21827 2.19137,5.27093l0 49.4434zm1.20227 4.68624c-0.667087,-1.34438 -1.6354,-2.51036 -2.81575,-3.408l-0.401386 -0.305386 0 -0.493606 0 -49.9226c0,-1.49669 -0.613417,-2.85921 -1.60063,-3.84643l0.00151181 -0.00188976c-0.987213,-0.986079 -2.34935,-1.59874 -3.84831,-1.59874l-0.000377953 0c-1.49707,0 -2.85883,0.613039 -3.84643,1.60063 -0.987213,0.987213 -1.60063,2.34973 -1.60063,3.84643l0 49.9223 0 0.493606 -0.401386 0.305386c-1.18035,0.897638 -2.14904,2.06362 -2.81613,3.408 -0.640252,1.28957 -1.00006,2.74696 -1.00006,4.29203 0,2.66872 1.08208,5.08535 2.83087,6.83414 1.74841,1.74841 4.16542,2.83049 6.83414,2.83049 2.6691,0 5.08535,-1.08208 6.83414,-2.83049 1.74841,-1.74879 2.83049,-4.16542 2.83049,-6.83414 0,-1.54507 -0.360189,-3.00208 -1.00006,-4.29165z"/>
   <path id="_229914368" fill="#6666FF" fill-opacity="0.501961" d="M880.096 508.88l0 0c1.93852,0 3.52479,1.58627 3.52479,3.52479l0 32.2122c2.10369,1.21852 3.51912,3.4938 3.51912,6.10016 0,3.88876 -3.15402,7.04315 -7.04353,7.04315 -3.88989,0 -7.04353,-3.15439 -7.04353,-7.04315 0,-2.60636 1.41506,-4.88164 3.51836,-6.0994l0 -32.2129c0,-1.93852 1.58589,-3.52479 3.52479,-3.52479z"/>



   <line id="_229914056" fill="none" x1="873.674" y1="502.913" x2="879.718" y2= "502.913" />
   <polygon id="_229914248" fill="white" fill-rule="nonzero" points="873.674,502.54 879.718,502.54 879.718,503.285 873.674,503.285 "/>
   <line id="_229914224" fill="none" x1="873.674" y1="498.338" x2="879.718" y2= "498.338" />
   <polygon id="_229914200" fill="white" fill-rule="nonzero" points="873.674,497.966 879.718,497.966 879.718,498.711 873.674,498.711 "/>
   <line id="_229913288" fill="none" x1="873.674" y1="507.487" x2="879.718" y2= "507.487" />
   <polygon id="_229913192" fill="white" fill-rule="nonzero" points="873.674,507.115 879.718,507.115 879.718,507.86 873.674,507.86 "/>
   <line id="_229913768" fill="none" x1="873.674" y1="512.062" x2="879.718" y2= "512.062" />
   <polygon id="_229913696" fill="white" fill-rule="nonzero" points="873.674,511.689 879.718,511.689 879.718,512.434 873.674,512.434 "/>
   <line id="_229913480" fill="none" x1="873.674" y1="516.637" x2="879.718" y2= "516.637" />
   <polygon id="_229913432" fill="white" fill-rule="nonzero" points="873.674,516.265 879.718,516.265 879.718,517.01 873.674,517.01 "/>
   <line id="_229913528" fill="none" x1="873.674" y1="521.212" x2="879.718" y2= "521.212" />
   <polygon id="_229913456" fill="white" fill-rule="nonzero" points="873.674,520.84 879.718,520.84 879.718,521.585 873.674,521.585 "/>
   <line id="_229912832" fill="none" x1="873.674" y1="525.787" x2="879.718" y2= "525.787" />
   <polygon id="_229912904" fill="white" fill-rule="nonzero" points="873.674,525.415 879.718,525.415 879.718,526.16 873.674,526.16 "/>
   <line id="_229913000" fill="none" x1="873.674" y1="530.362" x2="879.718" y2= "530.362" />
   <polygon id="_229912640" fill="white" fill-rule="nonzero" points="873.674,529.989 879.718,529.989 879.718,530.734 873.674,530.734 "/>
   <line id="_229912376" fill="none" x1="873.674" y1="534.937" x2="879.718" y2= "534.937" />
   <polygon id="_229912496" fill="white" fill-rule="nonzero" points="873.674,534.564 879.718,534.564 879.718,535.309 873.674,535.309 "/>
   <line id="_229912328" fill="none" x1="873.674" y1="539.511" x2="879.718" y2= "539.511" />
   <polygon id="_229912544" fill="white" fill-rule="nonzero" points="873.674,539.139 879.718,539.139 879.718,539.884 873.674,539.884 "/>
   <path id="_229912112" fill="white" fill-rule="nonzero" d="M897.313 484.834c0.890079,0 1.69625,0.361701 2.28057,0.944882l0.00302362 0.00340157c0.583559,0.583937 0.944882,1.392 0.944882,2.28057 0,0.890079 -0.361323,1.69625 -0.944882,2.28057l-0.00302362 0.00302362c-0.584315,0.583559 -1.39049,0.94526 -2.28057,0.94526 -0.888945,0 -1.69663,-0.361701 -2.28094,-0.94526l-0.00302362 -0.00302362c-0.583559,-0.584315 -0.944882,-1.39049 -0.944882,-2.28057 0,-0.888567 0.361323,-1.69663 0.944882,-2.28057l0.00302362 -0.00340157c0.584315,-0.583181 1.392,-0.944882 2.28094,-0.944882zm1.32321 1.90526c-0.338268,-0.336756 -0.806173,-0.545386 -1.32321,-0.545386 -0.516661,0 -0.986079,0.20863 -1.32359,0.545386 -0.336756,0.33789 -0.545764,0.807307 -0.545764,1.32359 0,0.517039 0.209008,0.984945 0.545764,1.32321 0.337512,0.337134 0.806929,0.545764 1.32359,0.545764 0.517039,0 0.984945,-0.20863 1.32321,-0.545764 0.336756,-0.338268 0.545764,-0.806173 0.545764,-1.32321 0,-0.516283 -0.209008,-0.985701 -0.545764,-1.32359z"/>
<text x="900.456" y="505.976" fill="white" font-weight="normal" font-size="32.629" font-family="Calibri">c</text>
</g>
   </svg>


